<?xml version="1.0" encoding="UTF-8" standalone="no"?>
<!DOCTYPE svg PUBLIC "-//W3C//DTD SVG 1.1//EN"
 "http://www.w3.org/Graphics/SVG/1.1/DTD/svg11.dtd">
<!-- Generated by graphviz version 2.40.1 (20161225.0304)
 -->
<!-- Title: chocolatechipcookie Pages: 1 -->
<svg width="792pt" height="424pt"
 viewBox="36.00 36.00 756.00 387.57" xmlns="http://www.w3.org/2000/svg" xmlns:xlink="http://www.w3.org/1999/xlink">
<g id="graph0" class="graph" transform="scale(.5095 .5095) rotate(0) translate(74.6548 756.6548)">
<title>chocolatechipcookie</title>
<polygon fill="#ffffff" stroke="transparent" points="-4,4 -4,-686 1409.0969,-686 1409.0969,4 -4,4"/>
<text text-anchor="middle" x="1131.7331" y="-654" font-family="Times" font-size="30.00" fill="#000000">An Untested Chocolate Chip Cookie Recipe</text>
<!-- flour -->
<g id="node1" class="node">
<title>flour</title>
<text text-anchor="middle" x="27" y="-540.8" font-family="Helvetica,sans-Serif" font-size="14.00" fill="#000000">flour</text>
</g>
<!-- ap -->
<g id="node2" class="node">
<title>ap</title>
<text text-anchor="middle" x="128.2515" y="-567.8" font-family="Helvetica,sans-Serif" font-size="14.00" fill="#000000">all purpose</text>
</g>
<!-- flour&#45;&gt;ap -->
<g id="edge1" class="edge">
<title>flour&#45;&gt;ap</title>
<path fill="none" stroke="#000000" stroke-dasharray="1,5" d="M54.1335,-552.2355C63.8575,-554.8285 75.0672,-557.8177 85.777,-560.6736"/>
</g>
<!-- ww -->
<g id="node6" class="node">
<title>ww</title>
<text text-anchor="middle" x="128.2515" y="-513.8" font-family="Helvetica,sans-Serif" font-size="14.00" fill="#000000">whole wheat</text>
</g>
<!-- flour&#45;&gt;ww -->
<g id="edge5" class="edge">
<title>flour&#45;&gt;ww</title>
<path fill="none" stroke="#000000" stroke-dasharray="1,5" d="M54.1335,-537.7645C62.4516,-535.5464 71.8569,-533.0383 81.1064,-530.5718"/>
</g>
<!-- sugar -->
<g id="node18" class="node">
<title>sugar</title>
<text text-anchor="middle" x="27" y="-270.8" font-family="Helvetica,sans-Serif" font-size="14.00" fill="#000000">sugar</text>
</g>
<!-- flour&#45;&gt;sugar -->
<g id="edge55" class="edge">
<title>flour&#45;&gt;sugar</title>
</g>
<!-- ap1 -->
<g id="node3" class="node">
<title>ap1</title>
<text text-anchor="middle" x="249.8062" y="-567.8" font-family="Helvetica,sans-Serif" font-size="14.00" fill="#000000">66%</text>
</g>
<!-- ap&#45;&gt;ap1 -->
<g id="edge2" class="edge">
<title>ap&#45;&gt;ap1</title>
<path fill="none" stroke="#000000" stroke-dasharray="1,5" d="M170.7654,-572C188.018,-572 207.4351,-572 222.7065,-572"/>
</g>
<!-- ap2 -->
<g id="node4" class="node">
<title>ap2</title>
<text text-anchor="middle" x="365.9126" y="-567.8" font-family="Helvetica,sans-Serif" font-size="14.00" fill="#000000">120g</text>
</g>
<!-- ap1&#45;&gt;ap2 -->
<g id="edge3" class="edge">
<title>ap1&#45;&gt;ap2</title>
<path fill="none" stroke="#000000" stroke-dasharray="1,5" d="M277.028,-572C295.6613,-572 320.2646,-572 338.8613,-572"/>
</g>
<!-- combine -->
<g id="node5" class="node">
<title>combine</title>
<ellipse fill="none" stroke="#000000" cx="478.249" cy="-410" rx="43.5665" ry="43.5665"/>
<text text-anchor="middle" x="478.249" y="-405.8" font-family="Helvetica,sans-Serif" font-size="14.00" fill="#000000">combine</text>
</g>
<!-- ap2&#45;&gt;combine -->
<g id="edge4" class="edge">
<title>ap2&#45;&gt;combine</title>
<path fill="none" stroke="#000000" d="M392.9411,-561.7265C401.358,-557.526 410.1449,-551.9833 416.7158,-545 438.6457,-521.6939 453.7828,-489.2122 463.5552,-461.9506"/>
<polygon fill="#000000" stroke="#000000" points="466.9764,-462.7644 466.9155,-452.1697 460.3562,-460.4899 466.9764,-462.7644"/>
</g>
<!-- ww2 -->
<g id="node8" class="node">
<title>ww2</title>
<text text-anchor="middle" x="365.9126" y="-513.8" font-family="Helvetica,sans-Serif" font-size="14.00" fill="#000000">60g</text>
</g>
<!-- ap2&#45;&gt;ww2 -->
<g id="edge47" class="edge">
<title>ap2&#45;&gt;ww2</title>
</g>
<!-- cream -->
<g id="node22" class="node">
<title>cream</title>
<ellipse fill="none" stroke="#000000" cx="582.0235" cy="-248" rx="34.8545" ry="34.8545"/>
<text text-anchor="middle" x="582.0235" y="-243.8" font-family="Helvetica,sans-Serif" font-size="14.00" fill="#000000">cream</text>
</g>
<!-- combine&#45;&gt;cream -->
<g id="edge56" class="edge">
<title>combine&#45;&gt;cream</title>
</g>
<!-- incorporate -->
<g id="node41" class="node">
<title>incorporate</title>
<ellipse fill="none" stroke="#000000" cx="696.6147" cy="-304" rx="54.2005" ry="54.2005"/>
<text text-anchor="middle" x="696.6147" y="-299.8" font-family="Helvetica,sans-Serif" font-size="14.00" fill="#000000">incorporate</text>
</g>
<!-- combine&#45;&gt;incorporate -->
<g id="edge35" class="edge">
<title>combine&#45;&gt;incorporate</title>
<path fill="none" stroke="#000000" d="M517.5407,-390.9269C551.1604,-374.6071 600.0326,-350.8833 638.2303,-332.3412"/>
<polygon fill="#000000" stroke="#000000" points="640.2281,-335.2621 647.6958,-327.7464 637.1712,-328.9648 640.2281,-335.2621"/>
</g>
<!-- ww1 -->
<g id="node7" class="node">
<title>ww1</title>
<text text-anchor="middle" x="249.8062" y="-513.8" font-family="Helvetica,sans-Serif" font-size="14.00" fill="#000000">33%</text>
</g>
<!-- ww&#45;&gt;ww1 -->
<g id="edge6" class="edge">
<title>ww&#45;&gt;ww1</title>
<path fill="none" stroke="#000000" stroke-dasharray="1,5" d="M175.2477,-518C191.2815,-518 208.6661,-518 222.612,-518"/>
</g>
<!-- ww1&#45;&gt;ww2 -->
<g id="edge7" class="edge">
<title>ww1&#45;&gt;ww2</title>
<path fill="none" stroke="#000000" stroke-dasharray="1,5" d="M277.028,-518C295.6613,-518 320.2646,-518 338.8613,-518"/>
</g>
<!-- ww2&#45;&gt;combine -->
<g id="edge8" class="edge">
<title>ww2&#45;&gt;combine</title>
<path fill="none" stroke="#000000" d="M393.1299,-506.285C401.1862,-502.1151 409.7161,-496.9536 416.7158,-491 428.744,-480.7694 439.8764,-467.804 449.2716,-455.2622"/>
<polygon fill="#000000" stroke="#000000" points="452.144,-457.2632 455.1866,-447.1147 446.4793,-453.1507 452.144,-457.2632"/>
</g>
<!-- powder2 -->
<g id="node11" class="node">
<title>powder2</title>
<text text-anchor="middle" x="365.9126" y="-459.8" font-family="Helvetica,sans-Serif" font-size="14.00" fill="#000000">3g</text>
</g>
<!-- ww2&#45;&gt;powder2 -->
<g id="edge48" class="edge">
<title>ww2&#45;&gt;powder2</title>
</g>
<!-- powder -->
<g id="node9" class="node">
<title>powder</title>
<text text-anchor="middle" x="128.2515" y="-459.8" font-family="Helvetica,sans-Serif" font-size="14.00" fill="#000000">baking powder</text>
</g>
<!-- powder1 -->
<g id="node10" class="node">
<title>powder1</title>
<text text-anchor="middle" x="249.8062" y="-459.8" font-family="Helvetica,sans-Serif" font-size="14.00" fill="#000000">2%</text>
</g>
<!-- powder&#45;&gt;powder1 -->
<g id="edge9" class="edge">
<title>powder&#45;&gt;powder1</title>
<path fill="none" stroke="#000000" stroke-dasharray="1,5" d="M181.921,-464C196.04,-464 210.6778,-464 222.7301,-464"/>
</g>
<!-- powder1&#45;&gt;powder2 -->
<g id="edge10" class="edge">
<title>powder1&#45;&gt;powder2</title>
<path fill="none" stroke="#000000" stroke-dasharray="1,5" d="M277.028,-464C295.6613,-464 320.2646,-464 338.8613,-464"/>
</g>
<!-- powder2&#45;&gt;combine -->
<g id="edge11" class="edge">
<title>powder2&#45;&gt;combine</title>
<path fill="none" stroke="#000000" d="M393.1061,-450.9281C404.1835,-445.6032 417.3313,-439.2831 429.9402,-433.222"/>
<polygon fill="#000000" stroke="#000000" points="431.4924,-436.3593 438.9888,-428.8724 428.4596,-430.0504 431.4924,-436.3593"/>
</g>
<!-- salt2 -->
<g id="node14" class="node">
<title>salt2</title>
<text text-anchor="middle" x="365.9126" y="-405.8" font-family="Helvetica,sans-Serif" font-size="14.00" fill="#000000">3g</text>
</g>
<!-- powder2&#45;&gt;salt2 -->
<g id="edge49" class="edge">
<title>powder2&#45;&gt;salt2</title>
</g>
<!-- salt -->
<g id="node12" class="node">
<title>salt</title>
<text text-anchor="middle" x="128.2515" y="-405.8" font-family="Helvetica,sans-Serif" font-size="14.00" fill="#000000">salt</text>
</g>
<!-- salt1 -->
<g id="node13" class="node">
<title>salt1</title>
<text text-anchor="middle" x="249.8062" y="-405.8" font-family="Helvetica,sans-Serif" font-size="14.00" fill="#000000">2%</text>
</g>
<!-- salt&#45;&gt;salt1 -->
<g id="edge12" class="edge">
<title>salt&#45;&gt;salt1</title>
<path fill="none" stroke="#000000" stroke-dasharray="1,5" d="M155.5307,-410C175.5498,-410 202.6203,-410 222.618,-410"/>
</g>
<!-- salt1&#45;&gt;salt2 -->
<g id="edge13" class="edge">
<title>salt1&#45;&gt;salt2</title>
<path fill="none" stroke="#000000" stroke-dasharray="1,5" d="M277.028,-410C295.6613,-410 320.2646,-410 338.8613,-410"/>
</g>
<!-- salt2&#45;&gt;combine -->
<g id="edge14" class="edge">
<title>salt2&#45;&gt;combine</title>
<path fill="none" stroke="#000000" d="M393.1061,-410C402.554,-410 413.5081,-410 424.3493,-410"/>
<polygon fill="#000000" stroke="#000000" points="424.6561,-413.5001 434.6561,-410 424.656,-406.5001 424.6561,-413.5001"/>
</g>
<!-- chips2 -->
<g id="node17" class="node">
<title>chips2</title>
<text text-anchor="middle" x="365.9126" y="-358.8" font-family="Helvetica,sans-Serif" font-size="14.00" fill="#000000">~170g</text>
<text text-anchor="middle" x="365.9126" y="-344.8" font-family="Helvetica,sans-Serif" font-size="14.00" fill="#000000">(1/2 package)</text>
</g>
<!-- salt2&#45;&gt;chips2 -->
<g id="edge50" class="edge">
<title>salt2&#45;&gt;chips2</title>
</g>
<!-- chips -->
<g id="node15" class="node">
<title>chips</title>
<text text-anchor="middle" x="128.2515" y="-351.8" font-family="Helvetica,sans-Serif" font-size="14.00" fill="#000000">chocolate chips</text>
</g>
<!-- chips1 -->
<g id="node16" class="node">
<title>chips1</title>
<text text-anchor="middle" x="249.8062" y="-351.8" font-family="Helvetica,sans-Serif" font-size="14.00" fill="#000000">100%</text>
</g>
<!-- chips&#45;&gt;chips1 -->
<g id="edge15" class="edge">
<title>chips&#45;&gt;chips1</title>
<path fill="none" stroke="#000000" stroke-dasharray="1,5" d="M184.4033,-356C197.7154,-356 211.3251,-356 222.6581,-356"/>
</g>
<!-- chips1&#45;&gt;chips2 -->
<g id="edge16" class="edge">
<title>chips1&#45;&gt;chips2</title>
<path fill="none" stroke="#000000" stroke-dasharray="1,5" d="M277.028,-356C288.4225,-356 302.0494,-356 315.17,-356"/>
</g>
<!-- chips2&#45;&gt;combine -->
<g id="edge17" class="edge">
<title>chips2&#45;&gt;combine</title>
<path fill="none" stroke="#000000" d="M403.6315,-374.1314C412.0522,-378.1792 421.0952,-382.5262 429.8787,-386.7485"/>
<polygon fill="#000000" stroke="#000000" points="428.3721,-389.9076 438.9013,-391.0856 431.4049,-383.5986 428.3721,-389.9076"/>
</g>
<!-- brown -->
<g id="node19" class="node">
<title>brown</title>
<text text-anchor="middle" x="128.2515" y="-297.8" font-family="Helvetica,sans-Serif" font-size="14.00" fill="#000000">brown</text>
</g>
<!-- sugar&#45;&gt;brown -->
<g id="edge18" class="edge">
<title>sugar&#45;&gt;brown</title>
<path fill="none" stroke="#000000" stroke-dasharray="1,5" d="M54.1335,-282.2355C68.6609,-286.1094 86.5043,-290.8676 101.043,-294.7445"/>
</g>
<!-- granulated -->
<g id="node23" class="node">
<title>granulated</title>
<text text-anchor="middle" x="128.2515" y="-243.8" font-family="Helvetica,sans-Serif" font-size="14.00" fill="#000000">granulated</text>
</g>
<!-- sugar&#45;&gt;granulated -->
<g id="edge22" class="edge">
<title>sugar&#45;&gt;granulated</title>
<path fill="none" stroke="#000000" stroke-dasharray="1,5" d="M54.1335,-267.7645C64.2089,-265.0778 75.8794,-261.9657 86.9363,-259.0172"/>
</g>
<!-- brown1 -->
<g id="node20" class="node">
<title>brown1</title>
<text text-anchor="middle" x="249.8062" y="-297.8" font-family="Helvetica,sans-Serif" font-size="14.00" fill="#000000">55%</text>
</g>
<!-- brown&#45;&gt;brown1 -->
<g id="edge19" class="edge">
<title>brown&#45;&gt;brown1</title>
<path fill="none" stroke="#000000" stroke-dasharray="1,5" d="M155.5307,-302C175.5498,-302 202.6203,-302 222.618,-302"/>
</g>
<!-- brown2 -->
<g id="node21" class="node">
<title>brown2</title>
<text text-anchor="middle" x="365.9126" y="-297.8" font-family="Helvetica,sans-Serif" font-size="14.00" fill="#000000">100g</text>
</g>
<!-- brown1&#45;&gt;brown2 -->
<g id="edge20" class="edge">
<title>brown1&#45;&gt;brown2</title>
<path fill="none" stroke="#000000" stroke-dasharray="1,5" d="M277.028,-302C295.6613,-302 320.2646,-302 338.8613,-302"/>
</g>
<!-- brown2&#45;&gt;cream -->
<g id="edge21" class="edge">
<title>brown2&#45;&gt;cream</title>
<path fill="none" stroke="#000000" d="M393.2832,-295.1609C429.847,-286.0246 495.0471,-269.7329 538.4179,-258.8958"/>
<polygon fill="#000000" stroke="#000000" points="539.2786,-262.2884 548.1318,-256.4686 537.5816,-255.4972 539.2786,-262.2884"/>
</g>
<!-- granulated2 -->
<g id="node25" class="node">
<title>granulated2</title>
<text text-anchor="middle" x="365.9126" y="-243.8" font-family="Helvetica,sans-Serif" font-size="14.00" fill="#000000">55g</text>
</g>
<!-- brown2&#45;&gt;granulated2 -->
<g id="edge51" class="edge">
<title>brown2&#45;&gt;granulated2</title>
</g>
<!-- cream&#45;&gt;incorporate -->
<g id="edge36" class="edge">
<title>cream&#45;&gt;incorporate</title>
<path fill="none" stroke="#000000" d="M613.336,-263.3022C621.2052,-267.1478 629.9039,-271.3988 638.6241,-275.6603"/>
<polygon fill="#000000" stroke="#000000" points="637.164,-278.8424 647.6853,-280.0885 640.2376,-272.5532 637.164,-278.8424"/>
</g>
<!-- granulated1 -->
<g id="node24" class="node">
<title>granulated1</title>
<text text-anchor="middle" x="249.8062" y="-243.8" font-family="Helvetica,sans-Serif" font-size="14.00" fill="#000000">30%</text>
</g>
<!-- granulated&#45;&gt;granulated1 -->
<g id="edge23" class="edge">
<title>granulated&#45;&gt;granulated1</title>
<path fill="none" stroke="#000000" stroke-dasharray="1,5" d="M169.4043,-248C186.8986,-248 206.8228,-248 222.4606,-248"/>
</g>
<!-- granulated1&#45;&gt;granulated2 -->
<g id="edge24" class="edge">
<title>granulated1&#45;&gt;granulated2</title>
<path fill="none" stroke="#000000" stroke-dasharray="1,5" d="M277.028,-248C295.6613,-248 320.2646,-248 338.8613,-248"/>
</g>
<!-- granulated2&#45;&gt;cream -->
<g id="edge25" class="edge">
<title>granulated2&#45;&gt;cream</title>
<path fill="none" stroke="#000000" d="M393.2832,-248C429.4545,-248 493.6508,-248 537.014,-248"/>
<polygon fill="#000000" stroke="#000000" points="537.0163,-251.5001 547.0162,-248 537.0162,-244.5001 537.0163,-251.5001"/>
</g>
<!-- butter2 -->
<g id="node28" class="node">
<title>butter2</title>
<text text-anchor="middle" x="365.9126" y="-196.8" font-family="Helvetica,sans-Serif" font-size="14.00" fill="#000000">115g</text>
<text text-anchor="middle" x="365.9126" y="-182.8" font-family="Helvetica,sans-Serif" font-size="14.00" fill="#000000">(1/2 cup)</text>
<text text-anchor="middle" x="365.9126" y="-168.8" font-family="Helvetica,sans-Serif" font-size="14.00" fill="#000000">(1 stick)</text>
</g>
<!-- granulated2&#45;&gt;butter2 -->
<g id="edge52" class="edge">
<title>granulated2&#45;&gt;butter2</title>
</g>
<!-- butter -->
<g id="node26" class="node">
<title>butter</title>
<text text-anchor="middle" x="128.2515" y="-182.8" font-family="Helvetica,sans-Serif" font-size="14.00" fill="#000000">unsalted butter</text>
</g>
<!-- butter1 -->
<g id="node27" class="node">
<title>butter1</title>
<text text-anchor="middle" x="249.8062" y="-182.8" font-family="Helvetica,sans-Serif" font-size="14.00" fill="#000000">66%</text>
</g>
<!-- butter&#45;&gt;butter1 -->
<g id="edge26" class="edge">
<title>butter&#45;&gt;butter1</title>
<path fill="none" stroke="#000000" stroke-dasharray="1,5" d="M182.6293,-187C196.5359,-187 210.8945,-187 222.749,-187"/>
</g>
<!-- butter1&#45;&gt;butter2 -->
<g id="edge27" class="edge">
<title>butter1&#45;&gt;butter2</title>
<path fill="none" stroke="#000000" stroke-dasharray="1,5" d="M277.028,-187C292.8462,-187 312.9667,-187 330.0626,-187"/>
</g>
<!-- butter2&#45;&gt;cream -->
<g id="edge28" class="edge">
<title>butter2&#45;&gt;cream</title>
<path fill="none" stroke="#000000" d="M401.5989,-197.0729C439.1756,-207.6794 498.362,-224.3855 538.6174,-235.7481"/>
<polygon fill="#000000" stroke="#000000" points="537.8445,-239.1666 548.4192,-238.5148 539.7461,-232.4298 537.8445,-239.1666"/>
</g>
<!-- vanilla2 -->
<g id="node31" class="node">
<title>vanilla2</title>
<text text-anchor="middle" x="365.9126" y="-128.8" font-family="Helvetica,sans-Serif" font-size="14.00" fill="#000000">4g</text>
<text text-anchor="middle" x="365.9126" y="-114.8" font-family="Helvetica,sans-Serif" font-size="14.00" fill="#000000">(1 tsp)</text>
</g>
<!-- butter2&#45;&gt;vanilla2 -->
<g id="edge53" class="edge">
<title>butter2&#45;&gt;vanilla2</title>
</g>
<!-- vanilla -->
<g id="node29" class="node">
<title>vanilla</title>
<text text-anchor="middle" x="128.2515" y="-121.8" font-family="Helvetica,sans-Serif" font-size="14.00" fill="#000000">vanilla extract</text>
</g>
<!-- vanilla1 -->
<g id="node30" class="node">
<title>vanilla1</title>
<text text-anchor="middle" x="249.8062" y="-121.8" font-family="Helvetica,sans-Serif" font-size="14.00" fill="#000000">2%</text>
</g>
<!-- vanilla&#45;&gt;vanilla1 -->
<g id="edge29" class="edge">
<title>vanilla&#45;&gt;vanilla1</title>
<path fill="none" stroke="#000000" stroke-dasharray="1,5" d="M179.0973,-126C194.0604,-126 209.8489,-126 222.7018,-126"/>
</g>
<!-- vanilla1&#45;&gt;vanilla2 -->
<g id="edge30" class="edge">
<title>vanilla1&#45;&gt;vanilla2</title>
<path fill="none" stroke="#000000" stroke-dasharray="1,5" d="M277.028,-126C295.3932,-126 319.5578,-126 338.0549,-126"/>
</g>
<!-- vanilla2&#45;&gt;cream -->
<g id="edge31" class="edge">
<title>vanilla2&#45;&gt;cream</title>
<path fill="none" stroke="#000000" d="M393.7518,-137.8927C425.5768,-151.9076 478.8163,-176.6451 521.7823,-203 530.1237,-208.1166 538.7453,-214.0951 546.7678,-219.992"/>
<polygon fill="#000000" stroke="#000000" points="544.7733,-222.8711 554.8743,-226.0682 548.9717,-217.2699 544.7733,-222.8711"/>
</g>
<!-- egg2 -->
<g id="node34" class="node">
<title>egg2</title>
<text text-anchor="middle" x="365.9126" y="-67.8" font-family="Helvetica,sans-Serif" font-size="14.00" fill="#000000">1 large</text>
</g>
<!-- vanilla2&#45;&gt;egg2 -->
<g id="edge54" class="edge">
<title>vanilla2&#45;&gt;egg2</title>
</g>
<!-- egg -->
<g id="node32" class="node">
<title>egg</title>
<text text-anchor="middle" x="128.2515" y="-67.8" font-family="Helvetica,sans-Serif" font-size="14.00" fill="#000000">egg</text>
</g>
<!-- egg1 -->
<g id="node33" class="node">
<title>egg1</title>
<text text-anchor="middle" x="249.8062" y="-67.8" font-family="Helvetica,sans-Serif" font-size="14.00" fill="#000000">33%</text>
</g>
<!-- egg&#45;&gt;egg1 -->
<g id="edge32" class="edge">
<title>egg&#45;&gt;egg1</title>
<path fill="none" stroke="#000000" stroke-dasharray="1,5" d="M155.5307,-72C175.5498,-72 202.6203,-72 222.618,-72"/>
</g>
<!-- egg1&#45;&gt;egg2 -->
<g id="edge33" class="edge">
<title>egg1&#45;&gt;egg2</title>
<path fill="none" stroke="#000000" stroke-dasharray="1,5" d="M277.028,-72C294.857,-72 318.1517,-72 336.4205,-72"/>
</g>
<!-- egg2&#45;&gt;cream -->
<g id="edge34" class="edge">
<title>egg2&#45;&gt;cream</title>
<path fill="none" stroke="#000000" d="M395.3564,-82.4465C428.9025,-95.4519 483.9589,-120.2658 521.7823,-155 537.9505,-169.8477 551.674,-189.9366 561.9199,-207.6442"/>
<polygon fill="#000000" stroke="#000000" points="559.019,-209.6278 566.9554,-216.6468 565.1283,-206.2107 559.019,-209.6278"/>
</g>
<!-- time1 -->
<g id="node45" class="node">
<title>time1</title>
<text text-anchor="middle" x="478.249" y="-40.8" font-family="Helvetica,sans-Serif" font-size="14.00" fill="#000000">5 minutes</text>
</g>
<!-- egg2&#45;&gt;time1 -->
<g id="edge66" class="edge">
<title>egg2&#45;&gt;time1</title>
</g>
<!-- portion -->
<g id="node35" class="node">
<title>portion</title>
<ellipse fill="none" stroke="#000000" cx="994.6743" cy="-318" rx="37.2941" ry="18"/>
<text text-anchor="middle" x="994.6743" y="-313.8" font-family="Helvetica,sans-Serif" font-size="14.00" fill="#000000">portion</text>
</g>
<!-- eat -->
<g id="node39" class="node">
<title>eat</title>
<ellipse fill="none" stroke="#000000" cx="1378.0969" cy="-333" rx="27" ry="18"/>
<text text-anchor="middle" x="1378.0969" y="-328.8" font-family="Helvetica,sans-Serif" font-size="14.00" fill="#000000">eat</text>
</g>
<!-- portion&#45;&gt;eat -->
<g id="edge45" class="edge">
<title>portion&#45;&gt;eat</title>
<path fill="none" stroke="#000000" stroke-dasharray="1,5" d="M1031.7869,-319.4519C1105.0505,-322.3181 1267.5081,-328.6736 1340.8669,-331.5435"/>
<polygon fill="#000000" stroke="#000000" points="1351.0226,-331.9408 1340.8543,-336.0464 1346.0264,-331.7453 1341.0302,-331.5498 1341.0302,-331.5498 1341.0302,-331.5498 1346.0264,-331.7453 1341.2062,-327.0532 1351.0226,-331.9408 1351.0226,-331.9408"/>
</g>
<!-- bake -->
<g id="node40" class="node">
<title>bake</title>
<ellipse fill="none" stroke="#000000" cx="1156.5685" cy="-382" rx="74.0919" ry="25.4118"/>
<text text-anchor="middle" x="1156.5685" y="-384.8" font-family="Helvetica,sans-Serif" font-size="14.00" fill="#000000">bake</text>
<text text-anchor="middle" x="1156.5685" y="-370.8" font-family="Helvetica,sans-Serif" font-size="14.00" fill="#000000">10&#45;14 minutes</text>
</g>
<!-- portion&#45;&gt;bake -->
<g id="edge40" class="edge">
<title>portion&#45;&gt;bake</title>
<path fill="none" stroke="#000000" d="M1023.9347,-329.2108C1036.4511,-334.0322 1051.2182,-339.7549 1064.5225,-345 1075.6633,-349.3922 1087.5425,-354.128 1098.9372,-358.6967"/>
<polygon fill="#000000" stroke="#000000" points="1097.7839,-362.0051 1108.3679,-362.4839 1100.3925,-355.5094 1097.7839,-362.0051"/>
</g>
<!-- preheat -->
<g id="node36" class="node">
<title>preheat</title>
<polygon fill="none" stroke="#000000" points="1064.3711,-454 953.4992,-454 924.9776,-354 1035.8495,-354 1064.3711,-454"/>
<text text-anchor="middle" x="994.6743" y="-413.8" font-family="Helvetica,sans-Serif" font-size="14.00" fill="#000000">preheat:</text>
<text text-anchor="middle" x="994.6743" y="-399.8" font-family="Helvetica,sans-Serif" font-size="14.00" fill="#000000">375°F</text>
<text text-anchor="middle" x="994.6743" y="-385.8" font-family="Helvetica,sans-Serif" font-size="14.00" fill="#000000">190°C</text>
</g>
<!-- preheat&#45;&gt;bake -->
<g id="edge43" class="edge">
<title>preheat&#45;&gt;bake</title>
<path fill="none" stroke="#000000" d="M1048.1332,-396.7354C1060.7512,-395.0207 1074.3803,-393.1687 1087.5761,-391.3755"/>
</g>
<!-- rest -->
<g id="node37" class="node">
<title>rest</title>
<polygon fill="none" stroke="#000000" points="837.8955,-308 769.0341,-272 837.8955,-236 906.7569,-272 837.8955,-308"/>
<text text-anchor="middle" x="837.8955" y="-274.8" font-family="Helvetica,sans-Serif" font-size="14.00" fill="#000000">optional:</text>
<text text-anchor="middle" x="837.8955" y="-260.8" font-family="Helvetica,sans-Serif" font-size="14.00" fill="#000000">rest</text>
</g>
<!-- rest&#45;&gt;portion -->
<g id="edge39" class="edge">
<title>rest&#45;&gt;portion</title>
<path fill="none" stroke="#000000" stroke-dasharray="1,5" d="M882.4026,-285.0587C904.5412,-291.5543 931.1443,-299.3598 952.8966,-305.7421"/>
<polygon fill="#000000" stroke="#000000" points="951.9352,-309.1075 962.5162,-308.5646 953.9061,-302.3907 951.9352,-309.1075"/>
</g>
<!-- rest&#45;&gt;eat -->
<g id="edge44" class="edge">
<title>rest&#45;&gt;eat</title>
<path fill="none" stroke="#000000" stroke-dasharray="1,5" d="M898.5605,-276.3859C944.2379,-279.8582 1008.3715,-285.0947 1064.5225,-291 1184.1817,-303.5844 1214.1457,-306.9089 1333.0969,-325 1335.9651,-325.4362 1338.932,-325.911 1341.9108,-326.4045"/>
<polygon fill="#000000" stroke="#000000" points="1351.9586,-328.1252 1341.3425,-330.8726 1347.0304,-327.2812 1342.1021,-326.4372 1342.1021,-326.4372 1342.1021,-326.4372 1347.0304,-327.2812 1342.8617,-322.0018 1351.9586,-328.1252 1351.9586,-328.1252"/>
</g>
<!-- cool -->
<g id="node38" class="node">
<title>cool</title>
<ellipse fill="none" stroke="#000000" cx="1290.8557" cy="-398" rx="27" ry="18"/>
<text text-anchor="middle" x="1290.8557" y="-393.8" font-family="Helvetica,sans-Serif" font-size="14.00" fill="#000000">cool</text>
</g>
<!-- cool&#45;&gt;eat -->
<g id="edge42" class="edge">
<title>cool&#45;&gt;eat</title>
<path fill="none" stroke="#000000" d="M1308.9321,-384.532C1321.3314,-375.2937 1337.9824,-362.8877 1351.8396,-352.5633"/>
<polygon fill="#000000" stroke="#000000" points="1354.1157,-355.2321 1360.0436,-346.4508 1349.9335,-349.6188 1354.1157,-355.2321"/>
</g>
<!-- bake&#45;&gt;cool -->
<g id="edge41" class="edge">
<title>bake&#45;&gt;cool</title>
<path fill="none" stroke="#000000" d="M1226.8584,-390.3749C1236.3326,-391.5037 1245.7231,-392.6226 1254.2731,-393.6413"/>
<polygon fill="#000000" stroke="#000000" points="1253.8907,-397.1204 1264.2346,-394.8282 1254.7189,-390.1695 1253.8907,-397.1204"/>
</g>
<!-- bake&#45;&gt;eat -->
<g id="edge46" class="edge">
<title>bake&#45;&gt;eat</title>
<path fill="none" stroke="#000000" stroke-dasharray="1,5" d="M1218.866,-368.2204C1258.7054,-359.4083 1308.9648,-348.2914 1342.2446,-340.9302"/>
<polygon fill="#000000" stroke="#000000" points="1352.4184,-338.6798 1343.6263,-345.2334 1347.5364,-339.7597 1342.6544,-340.8396 1342.6544,-340.8396 1342.6544,-340.8396 1347.5364,-339.7597 1341.6825,-336.4458 1352.4184,-338.6798 1352.4184,-338.6798"/>
</g>
<!-- incorporate&#45;&gt;portion -->
<g id="edge37" class="edge">
<title>incorporate&#45;&gt;portion</title>
<path fill="none" stroke="#000000" d="M750.2065,-314.6965C756.5082,-315.6373 762.8645,-316.4427 768.9648,-317 830.3297,-322.6063 901.4705,-321.7025 947.2233,-320.171"/>
<polygon fill="#000000" stroke="#000000" points="947.5682,-323.6609 957.4362,-319.8044 947.3171,-316.6654 947.5682,-323.6609"/>
</g>
<!-- incorporate&#45;&gt;rest -->
<g id="edge38" class="edge">
<title>incorporate&#45;&gt;rest</title>
<path fill="none" stroke="#000000" stroke-dasharray="1,5" d="M749.6244,-291.9933C759.4901,-289.7588 769.8459,-287.4132 779.853,-285.1466"/>
<polygon fill="#000000" stroke="#000000" points="780.7332,-288.536 789.713,-282.9133 779.1868,-281.7089 780.7332,-288.536"/>
</g>
<!-- label1 -->
<g id="node42" class="node">
<title>label1</title>
<polygon fill="none" stroke="#000000" points="296.9134,-644 202.6989,-644 202.6989,-608 296.9134,-608 296.9134,-644"/>
<text text-anchor="middle" x="249.8062" y="-628.8" font-family="Helvetica,sans-Serif" font-size="14.00" fill="#000000">Baker&#39;s</text>
<text text-anchor="middle" x="249.8062" y="-614.8" font-family="Helvetica,sans-Serif" font-size="14.00" fill="#000000">Percentages</text>
</g>
<!-- label1&#45;&gt;ap1 -->
<g id="edge57" class="edge">
<title>label1&#45;&gt;ap1</title>
</g>
<!-- label2 -->
<g id="node43" class="node">
<title>label2</title>
<polygon fill="none" stroke="#000000" points="404.8828,-644 326.9424,-644 326.9424,-608 404.8828,-608 404.8828,-644"/>
<text text-anchor="middle" x="365.9126" y="-621.8" font-family="Helvetica,sans-Serif" font-size="14.00" fill="#000000">Measures</text>
</g>
<!-- label2&#45;&gt;ap2 -->
<g id="edge58" class="edge">
<title>label2&#45;&gt;ap2</title>
</g>
<!-- time0 -->
<g id="node44" class="node">
<title>time0</title>
</g>
<!-- time0&#45;&gt;time1 -->
<g id="edge59" class="edge">
<title>time0&#45;&gt;time1</title>
</g>
<!-- time2 -->
<g id="node46" class="node">
<title>time2</title>
<text text-anchor="middle" x="582.0235" y="-40.8" font-family="Helvetica,sans-Serif" font-size="14.00" fill="#000000">10 minutes</text>
</g>
<!-- time1&#45;&gt;time2 -->
<g id="edge60" class="edge">
<title>time1&#45;&gt;time2</title>
</g>
<!-- time3 -->
<g id="node47" class="node">
<title>time3</title>
<text text-anchor="middle" x="696.6147" y="-40.8" font-family="Helvetica,sans-Serif" font-size="14.00" fill="#000000">1 minute</text>
</g>
<!-- time2&#45;&gt;time3 -->
<g id="edge61" class="edge">
<title>time2&#45;&gt;time3</title>
</g>
<!-- time4 -->
<g id="node48" class="node">
<title>time4</title>
<text text-anchor="middle" x="837.8955" y="-47.8" font-family="Helvetica,sans-Serif" font-size="14.00" fill="#000000">overnight</text>
<text text-anchor="middle" x="837.8955" y="-33.8" font-family="Helvetica,sans-Serif" font-size="14.00" fill="#000000">in fridge</text>
</g>
<!-- time3&#45;&gt;time4 -->
<g id="edge62" class="edge">
<title>time3&#45;&gt;time4</title>
</g>
<!-- time5 -->
<g id="node49" class="node">
<title>time5</title>
<text text-anchor="middle" x="994.6743" y="-40.8" font-family="Helvetica,sans-Serif" font-size="14.00" fill="#000000">2 minutes</text>
</g>
<!-- time4&#45;&gt;time5 -->
<g id="edge63" class="edge">
<title>time4&#45;&gt;time5</title>
</g>
<!-- time6 -->
<g id="node50" class="node">
<title>time6</title>
<text text-anchor="middle" x="1156.5685" y="-40.8" font-family="Helvetica,sans-Serif" font-size="14.00" fill="#000000">10&#45;14 minutes</text>
</g>
<!-- time5&#45;&gt;time6 -->
<g id="edge64" class="edge">
<title>time5&#45;&gt;time6</title>
</g>
<!-- time7 -->
<g id="node51" class="node">
<title>time7</title>
<text text-anchor="middle" x="1290.8557" y="-40.8" font-family="Helvetica,sans-Serif" font-size="14.00" fill="#000000">20 minutes</text>
</g>
<!-- time6&#45;&gt;time7 -->
<g id="edge65" class="edge">
<title>time6&#45;&gt;time7</title>
</g>
</g>
</svg>
